<?xml version="1.0" encoding="utf-8"?>
<!-- Generator: Adobe Illustrator 17.0.0, SVG Export Plug-In . SVG Version: 6.00 Build 0)  -->
<!DOCTYPE svg PUBLIC "-//W3C//DTD SVG 1.1//EN" "http://www.w3.org/Graphics/SVG/1.1/DTD/svg11.dtd">
<svg version="1.1" id="Capa_1" xmlns="http://www.w3.org/2000/svg" xmlns:xlink="http://www.w3.org/1999/xlink" x="0px" y="0px"
	 width="612px" height="792px" viewBox="0 0 612 792" enable-background="new 0 0 612 792" xml:space="preserve">
<g>
	<path fill="#F4F4F4" d="M588.721,184.567L313.76,91.203c-6.508-1.252-11.764-1.252-16.896,0L21.778,184.692
		c-22.402,6.883-21.777,24.53-21.777,25.031v359.315c0,10.388,6.508,19.524,16.896,23.404l279.968,108.007
		c5.006,2.128,15.644,1.252,18.272,0l279.967-107.882C605.492,588.686,612,579.55,612,569.162v-359.44
		C612,201.963,607.244,186.945,588.721,184.567z M306.001,142.015l205.752,68.959l-205.752,78.221l-205.752-78.221L306.001,142.015z
		 M50.813,550.89V247.519l229.155,87.232v304.623L50.813,550.89z M561.188,550.89l-229.155,88.483V335.502l229.155-87.983V550.89z"
		/>
</g>
</svg>
