<svg xmlns="http://www.w3.org/2000/svg" xmlns:xlink="http://www.w3.org/1999/xlink" version="1.1" enable-background="new 0 0 15.642 15.642" width="16" height="16"><rect id="backgroundrect" width="100%" height="100%" x="0" y="0" fill="none" stroke="none" class="" style=""/>
  
<g class="currentLayer" style=""><title>Layer 1</title><path fill-rule="evenodd" d="M8.882750005245208,7.821749886035919 l6.541,-6.541 c0.2930000000000003,-0.2930000000000003 0.2930000000000003,-0.768000000000001 0,-1.061 c-0.2930000000000003,-0.2930000000000003 -0.768000000000001,-0.2930000000000003 -1.061,0 L7.8217500052452085,6.760749886035919 L1.2807500052452088,0.22074988603591952 c-0.2930000000000003,-0.2930000000000003 -0.768000000000001,-0.2930000000000003 -1.061,0 c-0.2930000000000003,0.2930000000000003 -0.2930000000000003,0.768000000000001 0,1.061 l6.541,6.541 L0.22075000524520905,14.36274988603592 c-0.2930000000000003,0.2930000000000003 -0.2930000000000003,0.768000000000001 0,1.061 c0.1470000000000002,0.1460000000000002 0.3380000000000006,0.22000000000000025 0.53,0.22000000000000025 s0.3840000000000005,-0.07300000000000002 0.53,-0.22000000000000025 l6.541,-6.541 l6.541,6.541 c0.1470000000000002,0.1460000000000002 0.3380000000000006,0.22000000000000025 0.53,0.22000000000000025 c0.19200000000000028,0 0.3840000000000005,-0.07300000000000002 0.53,-0.22000000000000025 c0.2930000000000003,-0.2930000000000003 0.2930000000000003,-0.768000000000001 0,-1.061 L8.882750005245208,7.821749886035919 z" id="svg_1" class=""/></g></svg>