<svg xmlns="http://www.w3.org/2000/svg" xmlns:xlink="http://www.w3.org/1999/xlink" version="1.1" width="370" height="268" style="" xml:space="preserve"><rect id="backgroundrect" width="374.7474670410156" height="270.7070617675781" x="-1.0101009607315063" y="0" fill="none" stroke="none" class="" style=""/>
















<g class="currentLayer" style=""><title>Layer 1</title><g id="svg_5" class="">
</g><g id="svg_6" class="">
</g><g id="svg_7" class="">
</g><g id="svg_8" class="">
</g><g id="svg_9" class="">
</g><g id="svg_10" class="">
</g><g id="svg_11" class="">
</g><g id="svg_12" class="">
</g><g id="svg_13" class="">
</g><g id="svg_14" class="">
</g><g id="svg_15" class="">
</g><g id="svg_16" class="">
</g><g id="svg_17" class="">
</g><g id="svg_18" class="">
</g><g id="svg_19" class="">
</g><rect fill="#ffffff" stroke-dashoffset="" fill-rule="nonzero" id="svg_23" x="292" y="59.187049865722656" width="0" height="1" style="color: rgb(0, 0, 0);" class=""/><g id="svg_1" class="" opacity="1" fill="#ffffff" fill-opacity="1">
	<g id="svg_2" opacity="1" fill="#ffffff" fill-opacity="1">
		<path d="M357.1351007223129,1.9428902848222178e-16 H13.510100722312927 c-6.9030000000000005,0 -12.5,5.597 -12.5,12.5 v242.988 c0,6.902 5.597,12.5 12.5,12.5 h343.625 c6.902,0 12.5,-5.598 12.5,-12.5 V12.5 C369.6351007223129,5.597999999999999 364.0371007223129,1.9428902848222178e-16 357.1351007223129,1.9428902848222178e-16 zM344.6351007223129,242.98900000000003 H26.010100722312927 V25 h318.625 V242.98900000000003 z" id="svg_3" opacity="1" fill="#ffffff" fill-opacity="1"/>
		<path d="M58.76510072231293,83.883 l120,73.937 c2.01,1.239 4.283,1.858 6.557,1.858 s4.547,-0.6190000000000012 6.557,-1.858 l120,-73.937 c5.877,-3.621 7.707,-11.322 4.086,-17.199 s-11.324,-7.707 -17.199,-4.085 l-113.444,69.896 L71.87910072231293,62.599000000000004 c-5.875,-3.619 -13.576,-1.7930000000000001 -17.199,4.085 C51.05810072231293,72.55999999999999 52.88710072231293,80.26200000000001 58.76510072231293,83.883 z" id="svg_4" opacity="1" fill="#ffffff" fill-opacity="1"/>
	</g>
</g></g></svg>