<?xml version="1.0" encoding="utf-8"?>
<!-- Generator: Adobe Illustrator 17.0.0, SVG Export Plug-In . SVG Version: 6.00 Build 0)  -->
<!DOCTYPE svg PUBLIC "-//W3C//DTD SVG 1.1//EN" "http://www.w3.org/Graphics/SVG/1.1/DTD/svg11.dtd">
<svg version="1.1" id="Capa_1" xmlns="http://www.w3.org/2000/svg" xmlns:xlink="http://www.w3.org/1999/xlink" x="0px" y="0px"
	 width="586.076px" height="574.997px" viewBox="0 0 586.076 574.997" enable-background="new 0 0 586.076 574.997"
	 xml:space="preserve">
<g>
	<path fill="#F8F9F4" d="M529.225,6.365H126.761c-28.722,0-52.009,23.288-52.009,52.02v95.704h348.956
		c28.722,0,52.009,23.288,52.009,52.02v127.359h53.508c28.722,0,52.009-23.288,52.009-52.02V58.385
		C581.234,29.652,557.946,6.365,529.225,6.365z"/>
	<path fill="#0F2635" d="M518.325,133.602v268.767c0,34.618-23.288,62.675-52.009,62.675H244.072v104.953l-105.61-104.953H63.851
		c-28.722,0-52.009-28.058-52.009-62.663V133.614c0-34.618,23.288-62.675,52.009-62.675h402.453
		C495.037,70.939,518.325,98.997,518.325,133.602z"/>
	<circle fill="#F1F0F0" cx="130.817" cy="264.199" r="35.311"/>
	<circle fill="#F1F0F0" cx="265.083" cy="264.199" r="35.311"/>
	<circle fill="#F1F0F0" cx="393.85" cy="264.199" r="35.311"/>
	<g>
		<path fill="#0D1820" d="M244.072,465.044v104.953l-105.61-104.953H244.072z"/>
	</g>
</g>
</svg>
