<?xml version="1.0" encoding="utf-8"?>
<!-- Generator: Adobe Illustrator 17.0.0, SVG Export Plug-In . SVG Version: 6.00 Build 0)  -->
<!DOCTYPE svg PUBLIC "-//W3C//DTD SVG 1.1//EN" "http://www.w3.org/Graphics/SVG/1.1/DTD/svg11.dtd">
<svg version="1.1" id="Layer_1" xmlns="http://www.w3.org/2000/svg" xmlns:xlink="http://www.w3.org/1999/xlink" x="0px" y="0px"
	 width="468.723px" height="492.851px" viewBox="179.138 98.149 468.723 492.851"
	 enable-background="new 179.138 98.149 468.723 492.851" xml:space="preserve">
<polygon fill="#C7CFE2" points="542.084,173.553 524.89,162.616 555.106,115.126 572.301,126.063 "/>
<path fill="#D7DEED" d="M582.056,138.318l5.476-8.602c3.022-4.748,1.624-11.045-3.124-14.069l-24.98-15.904
	c-4.748-3.022-11.045-1.624-14.069,3.124l-5.476,8.602c-3.022,4.748-1.624,11.045,3.124,14.069l24.98,15.904
	C572.735,144.464,579.033,143.066,582.056,138.318z"/>
<polygon fill="#C7CFE2" points="284.916,173.553 254.699,126.063 271.894,115.126 302.11,162.616 "/>
<g>
	<circle fill="#D7DEED" cx="413.5" cy="356.638" r="234.362"/>
</g>
<circle fill="#C7CFE2" cx="413.5" cy="356.638" r="213.982"/>
<circle fill="#FFFFFF" cx="413.5" cy="356.638" r="193.603"/>
<path fill="#FFCDCD" d="M521.577,464.714c27.659-27.658,44.768-65.87,44.768-108.077c0-84.414-68.431-152.845-152.845-152.845
	v152.845L521.577,464.714z"/>
<path fill="#D7DEED" d="M244.944,138.318l-5.476-8.602c-3.022-4.748-1.624-11.045,3.124-14.069l24.98-15.904
	c4.748-3.022,11.045-1.624,14.069,3.124l5.476,8.602c3.022,4.748,1.624,11.045-3.124,14.069l-24.98,15.904
	C254.264,144.464,247.966,143.066,244.944,138.318z"/>
<g>
	<path fill="#5B5D6E" d="M413.5,183.414L413.5,183.414c-5.627,0-10.19,4.563-10.19,10.19v20.379c0,5.627,4.563,10.19,10.19,10.19
		l0,0c5.627,0,10.19-4.563,10.19-10.19v-20.379C423.69,187.976,419.127,183.414,413.5,183.414z"/>
	<path fill="#5B5D6E" d="M413.5,489.103L413.5,489.103c-5.627,0-10.19,4.563-10.19,10.19v20.379c0,5.627,4.563,10.19,10.19,10.19
		l0,0c5.627,0,10.19-4.563,10.19-10.19v-20.379C423.69,493.666,419.127,489.103,413.5,489.103z"/>
	<path fill="#5B5D6E" d="M586.724,356.638L586.724,356.638c0-5.627-4.563-10.19-10.19-10.19h-20.379
		c-5.627,0-10.19,4.563-10.19,10.19l0,0c0,5.627,4.563,10.19,10.19,10.19h20.379C582.161,366.827,586.724,362.266,586.724,356.638z"
		/>
	<path fill="#5B5D6E" d="M281.034,356.638L281.034,356.638c0-5.627-4.563-10.19-10.19-10.19h-20.379
		c-5.627,0-10.19,4.563-10.19,10.19l0,0c0,5.627,4.563,10.19,10.19,10.19h20.379C276.472,366.827,281.034,362.266,281.034,356.638z"
		/>
</g>
<g>
	<path fill="#8F96AC" d="M326.888,506.654L326.888,506.654c4.873,2.814,11.105,1.144,13.919-3.73l10.19-17.648
		c2.814-4.873,1.144-11.105-3.73-13.92l0,0c-4.873-2.814-11.105-1.144-13.919,3.73l-10.19,17.648
		C320.345,497.608,322.015,503.84,326.888,506.654z"/>
	<path fill="#8F96AC" d="M479.732,241.919L479.732,241.919c4.873,2.814,11.105,1.144,13.92-3.73l10.19-17.648
		c2.814-4.873,1.144-11.105-3.73-13.919l0,0c-4.873-2.814-11.105-1.144-13.92,3.73L476.003,228
		C473.19,232.874,474.86,239.106,479.732,241.919z"/>
	<path fill="#8F96AC" d="M263.484,270.026L263.484,270.026c-2.814,4.873-1.144,11.105,3.73,13.919l17.648,10.19
		c4.873,2.814,11.105,1.144,13.919-3.73l0,0c2.814-4.873,1.144-11.105-3.73-13.919l-17.648-10.19
		C272.529,263.483,266.297,265.152,263.484,270.026z"/>
	<path fill="#8F96AC" d="M528.219,422.871L528.219,422.871c-2.814,4.873-1.144,11.105,3.73,13.92l17.648,10.19
		c4.873,2.814,11.106,1.144,13.919-3.73l0,0c2.814-4.873,1.144-11.105-3.729-13.92l-17.648-10.19
		C537.264,416.327,531.033,417.997,528.219,422.871z"/>
	<path fill="#8F96AC" d="M500.112,506.654L500.112,506.654c-4.873,2.814-11.105,1.144-13.92-3.73l-10.19-17.648
		c-2.814-4.873-1.144-11.105,3.73-13.92l0,0c4.873-2.814,11.105-1.144,13.92,3.73l10.19,17.648
		C506.655,497.608,504.985,503.84,500.112,506.654z"/>
	<path fill="#8F96AC" d="M347.268,241.919L347.268,241.919c-4.873,2.814-11.105,1.144-13.919-3.73l-10.19-17.648
		c-2.814-4.873-1.144-11.105,3.73-13.919l0,0c4.873-2.814,11.105-1.144,13.919,3.73L350.997,228
		C353.81,232.874,352.14,239.106,347.268,241.919z"/>
	<path fill="#8F96AC" d="M563.516,270.026L563.516,270.026c2.814,4.873,1.144,11.105-3.729,13.919l-17.648,10.19
		c-4.873,2.814-11.105,1.144-13.92-3.73l0,0c-2.814-4.873-1.144-11.105,3.729-13.919l17.648-10.19
		C554.47,263.483,560.703,265.152,563.516,270.026z"/>
	<path fill="#8F96AC" d="M298.781,422.871L298.781,422.871c2.814,4.873,1.144,11.105-3.73,13.92l-17.648,10.19
		c-4.873,2.814-11.105,1.144-13.919-3.73l0,0c-2.814-4.873-1.144-11.105,3.73-13.92l17.648-10.19
		C289.735,416.327,295.967,417.997,298.781,422.871z"/>
</g>
<path fill="#FF6464" d="M525.586,478.914c-2.608,0-5.215-0.995-7.204-2.985L385.917,343.462c-3.98-3.98-3.98-10.429,0-14.409
	s10.429-3.98,14.409,0l132.466,132.466c3.98,3.98,3.98,10.429,0,14.409C530.801,477.919,528.193,478.914,525.586,478.914z"/>
<circle fill="#C7CFE2" cx="413.5" cy="356.638" r="20.379"/>
</svg>
