<svg xmlns="http://www.w3.org/2000/svg" xmlns:xlink="http://www.w3.org/1999/xlink" version="1.1" style="enable-background:new 0 0 384.97 384.97;" xml:space="preserve" width="385" height="192"><rect id="backgroundrect" width="100%" height="100%" x="0" y="0" fill="none" stroke="none" class="" style=""/>
















<g class="currentLayer" style=""><title>Layer 1</title><g id="svg_1" class="">
	<g id="Menu_1_">
		<path d="M12.03,24.05999996948242 h360.909 c6.641,0 12.03,-5.39 12.03,-12.03 c0,-6.641 -5.39,-12.03 -12.03,-12.03 H12.03 c-6.641,0 -12.03,5.39 -12.03,12.03 C0,18.66999996948242 5.39,24.05999996948242 12.03,24.05999996948242 z" id="svg_2"/>
		<path d="M372.939,84.21199996948243 H12.03 c-6.641,0 -12.03,5.39 -12.03,12.03 s5.39,12.03 12.03,12.03 h360.909 c6.641,0 12.03,-5.39 12.03,-12.03 S379.58,84.21199996948243 372.939,84.21199996948243 z" id="svg_3"/>
		<path d="M372.939,168.4239999694824 H132.333 c-6.641,0 -12.03,5.39 -12.03,12.03 c0,6.641 5.39,12.03 12.03,12.03 h240.606 c6.641,0 12.03,-5.39 12.03,-12.03 C384.97,173.8129999694824 379.58,168.4239999694824 372.939,168.4239999694824 z" id="svg_4"/>
	</g>
	<g id="svg_5">
	</g>
	<g id="svg_6">
	</g>
	<g id="svg_7">
	</g>
	<g id="svg_8">
	</g>
	<g id="svg_9">
	</g>
	<g id="svg_10">
	</g>
</g><g id="svg_11" class="">
</g><g id="svg_12" class="">
</g><g id="svg_13" class="">
</g><g id="svg_14" class="">
</g><g id="svg_15" class="">
</g><g id="svg_16" class="">
</g><g id="svg_17" class="">
</g><g id="svg_18" class="">
</g><g id="svg_19" class="">
</g><g id="svg_20" class="">
</g><g id="svg_21" class="">
</g><g id="svg_22" class="">
</g><g id="svg_23" class="">
</g><g id="svg_24" class="">
</g><g id="svg_25" class="">
</g></g></svg>