<?xml version="1.0" encoding="utf-8"?>
<!-- Generator: Adobe Illustrator 17.0.0, SVG Export Plug-In . SVG Version: 6.00 Build 0)  -->
<!DOCTYPE svg PUBLIC "-//W3C//DTD SVG 1.1//EN" "http://www.w3.org/Graphics/SVG/1.1/DTD/svg11.dtd">
<svg version="1.1" id="Capa_1" xmlns="http://www.w3.org/2000/svg" xmlns:xlink="http://www.w3.org/1999/xlink" x="0px" y="0px"
	 width="612px" height="614px" viewBox="0 88.5 612 614" enable-background="new 0 88.5 612 614" xml:space="preserve">
<g>
	<g>
		<path fill="#BCBCBC" d="M306.006,292.966c-57.977,0-105.163,46.214-105.163,103.04s47.174,103.095,105.163,103.095
			c57.968,0,105.129-46.268,105.129-103.095C411.136,339.17,363.974,292.966,306.006,292.966z M306.006,478.404
			c-46.56,0-84.414-36.982-84.414-82.4c0-45.395,37.855-82.334,84.414-82.334c46.539,0,84.393,36.939,84.393,82.334
			C390.399,441.434,352.542,478.404,306.006,478.404z"/>
		<path fill="#F4F4F4" d="M530.969,322.407l-2.92-1.035l-11.387-27.148l1.24-2.79c34.441-78.102,32.081-80.438,26.35-86.106
			l-45.946-44.814c-1.875-1.854-5.159-3.167-8.016-3.167c-2.574,0-10.418,0-78.274,30.733l-2.715,1.216l-27.997-11.279l-1.132-2.778
			c-31.886-79.002-35.173-79.002-43.11-79.002h-64.885c-7.907,0-11.516,0-41.096,79.147l-1.111,2.878l-27.846,11.354l-2.661-1.111
			c-45.924-19.37-72.735-29.183-79.728-29.183c-2.845,0-6.141,1.27-8.037,3.133l-45.976,44.943
			c-5.84,5.752-8.251,8.154,27.997,84.64l1.336,2.845l-11.387,27.103l-2.79,1.078C0,354.326,0,357.366,0,365.52v63.548
			c0,8.166,0,11.55,81.022,40.591l2.899,1.023l11.387,27.039l-1.216,2.769c-34.45,78.144-32.265,80.254-26.392,86.085l45.87,44.889
			c1.929,1.854,5.247,3.167,8.079,3.167c2.565,0,10.385,0,78.274-30.712l2.715-1.282l28.021,11.333l1.099,2.811
			c31.931,78.984,35.215,78.984,43.155,78.984h64.906c8.145,0,11.504,0,41.117-79.21l1.12-2.878l27.891-11.3l2.661,1.099
			c45.891,19.424,72.684,29.216,79.64,29.216c2.823,0,6.153-1.228,8.07-3.133l46.063-45.031c5.794-5.785,8.199-8.166-28.105-84.565
			l-1.346-2.878l11.375-26.997l2.715-1.066c80.989-31.401,80.989-34.462,80.989-42.616v-63.518
			C611.988,354.714,611.988,351.343,530.969,322.407z M510.931,457.98l-14.888,35.41c-1.141,2.694-1.078,5.785,0.205,8.488
			c10.481,21.922,24.336,52.42,30.056,67.437l1.616,4.265l-38.544,37.704l-4.039-1.345c-15.264-5.171-47.604-18.292-71.185-28.31
			c-2.423-1.023-5.46-1.099-8.037-0.033l-36.1,14.596c-2.703,1.099-4.825,3.287-5.84,5.978
			c-10.192,27.47-21.814,56.394-27.62,68.825l-1.884,4.039h-54.714l-1.917-3.814c-7.164-14.241-20.49-45.762-29.839-69
			c-1.002-2.586-3.103-4.708-5.719-5.794l-36.229-14.671c-2.423-0.99-5.719-0.882-8.199,0.217
			c-23.259,10.644-54.551,24.228-69.439,29.658l-4.136,1.541l-38.565-37.746l1.496-4.232c5.171-14.671,18.325-45.9,28.656-69.18
			c1.141-2.619,1.186-5.505,0.075-8.166l-14.876-35.335c-1.132-2.694-3.317-4.771-6.086-5.752
			c-23.572-8.413-55.62-20.468-70.312-27.073l-4.106-1.884v-53.098l3.997-1.917c14.286-6.755,46.268-19.746,70.441-29.086
			c2.661-1.023,4.741-3.004,5.84-5.614l14.951-35.41c1.141-2.724,1.078-5.818-0.184-8.509
			c-12.465-26.07-25.089-54.467-30.043-67.468l-1.637-4.277l38.523-37.671l4.027,1.346c14.9,4.988,47.162,17.991,71.314,28.289
			c2.553,1.057,5.385,1.078,7.983,0.033l36.109-14.662c2.619-1.099,4.75-3.317,5.752-5.978
			c8.564-22.988,20.845-54.317,27.611-68.804l1.875-4.04h54.714l1.96,3.868c7.077,14.186,20.402,45.762,29.764,69.075
			c1.044,2.574,3.167,4.687,5.719,5.719l36.163,14.608c2.498,1.035,5.818,0.948,8.133-0.129
			c23.418-10.698,54.864-24.312,69.581-29.667l4.157-1.454l38.556,37.596l-1.496,4.232c-5.256,14.822-18.388,46.03-28.644,69.18
			c-1.165,2.64-1.165,5.581-0.054,8.296l14.876,35.398c1.12,2.682,3.317,4.771,6.086,5.773
			c28.376,10.063,57.257,21.116,70.27,26.931l4.169,1.875v53.001l-3.964,1.938c-14.629,6.992-46.84,19.993-70.571,29.183
			C514.176,453.306,511.988,455.428,510.931,457.98z"/>
	</g>
</g>
</svg>
