<?xml version="1.0" encoding="utf-8"?>
<!-- Generator: Adobe Illustrator 23.0.0, SVG Export Plug-In . SVG Version: 6.00 Build 0)  -->
<svg version="1.1" id="Layer_1" xmlns="http://www.w3.org/2000/svg" xmlns:xlink="http://www.w3.org/1999/xlink" x="0px" y="0px"
	 viewBox="0 0 200 70" style="enable-background:new 0 0 200 70;" xml:space="preserve">
<style type="text/css">
	.st0{clip-path:url(#SVGID_2_);fill:url(#SVGID_3_);}
	.st1{clip-path:url(#SVGID_5_);fill:url(#SVGID_6_);}
	.st2{clip-path:url(#SVGID_8_);fill:url(#SVGID_9_);}
	.st3{clip-path:url(#SVGID_11_);fill:url(#SVGID_12_);}
	.st4{fill:#FFFFFF;}
</style>
<g>
	<path d="M199.8,58.5c0,4.9-4,8.8-8.8,8.8H8.8c-4.9,0-8.8-4-8.8-8.8V10.8C0,5.9,4,2,8.8,2H191c4.9,0,8.8,4,8.8,8.8V58.5z"/>
	<g id="PLAY_1_">
		<g>
			<defs>
				<path id="SVGID_1_" d="M43.3,30.7l-9-5.2c0,0-16.4-9.5-17.4-10c-1-0.6-1.9-0.2-1.9,0.9c0,1.9,0,20.2,0,20.2s0,19.8,0,20.6
					c0,0.9,0.7,1.2,1.5,0.8c0.8-0.5,17.8-10.3,17.8-10.3l9-5.2c0,0,7.6-4.4,8.7-5c1-0.6,0.9-1.4,0.1-1.9
					C51.2,35.3,43.3,30.7,43.3,30.7z"/>
			</defs>
			<clipPath id="SVGID_2_">
				<use xlink:href="#SVGID_1_"  style="overflow:visible;"/>
			</clipPath>
			
				<linearGradient id="SVGID_3_" gradientUnits="userSpaceOnUse" x1="26.15" y1="55.3898" x2="26.15" y2="11.0898" gradientTransform="matrix(1 0 0 -1 0 69.8898)">
				<stop  offset="0" style="stop-color:#2078AF"/>
				<stop  offset="0.2633" style="stop-color:#4C90B7"/>
				<stop  offset="0.7596" style="stop-color:#8CBEBF"/>
				<stop  offset="1" style="stop-color:#A3D1C0"/>
			</linearGradient>
			<polygon class="st0" points="15,14.5 15,36.7 15,58.8 37.3,36.7 			"/>
		</g>
		<g>
			<defs>
				<path id="SVGID_4_" d="M43.3,30.7l-9-5.2c0,0-16.4-9.5-17.4-10c-1-0.6-1.9-0.2-1.9,0.9c0,1.9,0,20.2,0,20.2s0,19.8,0,20.6
					c0,0.9,0.7,1.2,1.5,0.8c0.8-0.5,17.8-10.3,17.8-10.3l9-5.2c0,0,7.6-4.4,8.7-5c1-0.6,0.9-1.4,0.1-1.9
					C51.2,35.3,43.3,30.7,43.3,30.7z"/>
			</defs>
			<clipPath id="SVGID_5_">
				<use xlink:href="#SVGID_4_"  style="overflow:visible;"/>
			</clipPath>
			
				<linearGradient id="SVGID_6_" gradientUnits="userSpaceOnUse" x1="15" y1="44.3398" x2="43.3" y2="44.3398" gradientTransform="matrix(1 0 0 -1 0 69.8898)">
				<stop  offset="0" style="stop-color:#60B8A8"/>
				<stop  offset="1" style="stop-color:#EBE999"/>
			</linearGradient>
			<polygon class="st1" points="43.3,30.7 34.3,25.5 15,14.4 15,14.5 37.3,36.7 			"/>
		</g>
		<g>
			<defs>
				<path id="SVGID_7_" d="M43.3,30.7l-9-5.2c0,0-16.4-9.5-17.4-10c-1-0.6-1.9-0.2-1.9,0.9c0,1.9,0,20.2,0,20.2s0,19.8,0,20.6
					c0,0.9,0.7,1.2,1.5,0.8c0.8-0.5,17.8-10.3,17.8-10.3l9-5.2c0,0,7.6-4.4,8.7-5c1-0.6,0.9-1.4,0.1-1.9
					C51.2,35.3,43.3,30.7,43.3,30.7z"/>
			</defs>
			<clipPath id="SVGID_8_">
				<use xlink:href="#SVGID_7_"  style="overflow:visible;"/>
			</clipPath>
			
				<linearGradient id="SVGID_9_" gradientUnits="userSpaceOnUse" x1="29.15" y1="33.2187" x2="29.15" y2="10.9187" gradientTransform="matrix(1 0 0 -1 0 69.8898)">
				<stop  offset="0" style="stop-color:#DD2826"/>
				<stop  offset="0.1808" style="stop-color:#D02E3D"/>
				<stop  offset="0.582" style="stop-color:#B13668"/>
				<stop  offset="0.8642" style="stop-color:#9B397F"/>
				<stop  offset="1" style="stop-color:#923A87"/>
			</linearGradient>
			<polygon class="st2" points="15,58.8 15,59 34.3,47.8 43.3,42.6 37.3,36.7 			"/>
		</g>
		<g>
			<defs>
				<path id="SVGID_10_" d="M43.3,30.7l-9-5.2c0,0-16.4-9.5-17.4-10c-1-0.6-1.9-0.2-1.9,0.9c0,1.9,0,20.2,0,20.2s0,19.8,0,20.6
					c0,0.9,0.7,1.2,1.5,0.8c0.8-0.5,17.8-10.3,17.8-10.3l9-5.2c0,0,7.6-4.4,8.7-5c1-0.6,0.9-1.4,0.1-1.9
					C51.2,35.3,43.3,30.7,43.3,30.7z"/>
			</defs>
			<clipPath id="SVGID_11_">
				<use xlink:href="#SVGID_10_"  style="overflow:visible;"/>
			</clipPath>
			
				<linearGradient id="SVGID_12_" gradientUnits="userSpaceOnUse" x1="45.45" y1="39.1629" x2="45.45" y2="27.2753" gradientTransform="matrix(1 0 0 -1 0 69.8898)">
				<stop  offset="0" style="stop-color:#ED8579"/>
				<stop  offset="0.1607" style="stop-color:#EF937A"/>
				<stop  offset="0.7262" style="stop-color:#F8BE75"/>
				<stop  offset="1" style="stop-color:#FBCD70"/>
			</linearGradient>
			<polygon class="st3" points="43.3,30.7 37.3,36.7 43.3,42.6 53.6,36.7 			"/>
		</g>
	</g>
	<g>
		<g>
			<path class="st4" d="M82,34.8h-1.6L80,33.2c-0.7,0.7-1.3,1.3-2,1.5c-0.7,0.3-1.4,0.4-2.2,0.4c-1,0-2-0.2-2.8-0.6
				c-0.8-0.4-1.5-0.9-2.1-1.6c-0.6-0.7-1-1.4-1.3-2.3s-0.5-1.8-0.5-2.8s0.2-1.9,0.5-2.8s0.7-1.7,1.3-2.3c0.6-0.7,1.3-1.2,2.1-1.6
				c0.8-0.4,1.8-0.6,2.8-0.6c0.8,0,1.5,0.1,2.2,0.3c0.7,0.2,1.3,0.5,1.8,0.9s1,0.9,1.3,1.5c0.4,0.6,0.6,1.3,0.7,2.1h-2.4
				c-0.1-0.5-0.2-0.9-0.4-1.2c-0.2-0.3-0.5-0.6-0.8-0.9c-0.3-0.2-0.7-0.4-1.1-0.5s-0.8-0.2-1.3-0.2c-0.7,0-1.4,0.2-1.9,0.4
				c-0.5,0.3-1,0.7-1.3,1.2s-0.6,1.1-0.8,1.7c-0.2,0.6-0.2,1.3-0.2,2s0.1,1.3,0.2,2c0.2,0.6,0.4,1.2,0.8,1.7
				c0.3,0.5,0.8,0.9,1.3,1.2s1.2,0.4,1.9,0.4c0.6,0,1.2-0.1,1.7-0.2c0.5-0.2,0.9-0.4,1.2-0.8c0.3-0.3,0.6-0.7,0.8-1.2
				c0.2-0.5,0.3-1,0.3-1.6h-3.7v-1.9H82V34.8z"/>
			<path class="st4" d="M89,35c-0.8,0-1.5-0.1-2.2-0.4c-0.6-0.3-1.2-0.6-1.6-1.1s-0.8-1-1-1.7s-0.3-1.4-0.3-2.2
				c0-0.8,0.1-1.5,0.3-2.1c0.2-0.7,0.6-1.2,1-1.7s1-0.8,1.6-1.1c0.6-0.3,1.4-0.4,2.2-0.4c0.8,0,1.5,0.1,2.2,0.4
				c0.6,0.3,1.2,0.6,1.6,1.1s0.8,1,1,1.7s0.3,1.4,0.3,2.1c0,0.8-0.1,1.5-0.3,2.2c-0.2,0.7-0.6,1.2-1,1.7s-1,0.8-1.6,1.1
				C90.5,34.9,89.8,35,89,35z M89,33.3c0.5,0,0.9-0.1,1.3-0.3s0.7-0.5,0.9-0.8c0.2-0.3,0.4-0.7,0.5-1.1s0.2-0.9,0.2-1.3
				s-0.1-0.9-0.2-1.3s-0.3-0.8-0.5-1.1c-0.2-0.3-0.5-0.6-0.9-0.8c-0.4-0.2-0.8-0.3-1.3-0.3s-0.9,0.1-1.3,0.3
				c-0.4,0.2-0.7,0.5-0.9,0.8c-0.2,0.3-0.4,0.7-0.5,1.1s-0.2,0.9-0.2,1.3s0.1,0.9,0.2,1.3s0.3,0.8,0.5,1.1c0.2,0.3,0.5,0.6,0.9,0.8
				S88.5,33.3,89,33.3z"/>
			<path class="st4" d="M100.6,35c-0.8,0-1.5-0.1-2.2-0.4c-0.6-0.3-1.2-0.6-1.6-1.1s-0.8-1-1-1.7s-0.3-1.4-0.3-2.2
				c0-0.8,0.1-1.5,0.3-2.1c0.2-0.7,0.6-1.2,1-1.7s1-0.8,1.6-1.1c0.6-0.3,1.4-0.4,2.2-0.4c0.8,0,1.5,0.1,2.2,0.4
				c0.6,0.3,1.2,0.6,1.6,1.1s0.8,1,1,1.7s0.3,1.4,0.3,2.1c0,0.8-0.1,1.5-0.3,2.2c-0.2,0.7-0.6,1.2-1,1.7s-1,0.8-1.6,1.1
				C102.1,34.9,101.4,35,100.6,35z M100.6,33.3c0.5,0,0.9-0.1,1.3-0.3s0.7-0.5,0.9-0.8c0.2-0.3,0.4-0.7,0.5-1.1s0.2-0.9,0.2-1.3
				s-0.1-0.9-0.2-1.3s-0.3-0.8-0.5-1.1c-0.2-0.3-0.5-0.6-0.9-0.8c-0.4-0.2-0.8-0.3-1.3-0.3s-0.9,0.1-1.3,0.3
				c-0.4,0.2-0.7,0.5-0.9,0.8c-0.2,0.3-0.4,0.7-0.5,1.1s-0.2,0.9-0.2,1.3s0.1,0.9,0.2,1.3s0.3,0.8,0.5,1.1c0.2,0.3,0.5,0.6,0.9,0.8
				S100.1,33.3,100.6,33.3z"/>
			<path class="st4" d="M116.9,34.2c0,1.5-0.4,2.7-1.3,3.4s-2.1,1.1-3.7,1.1c-0.5,0-1-0.1-1.5-0.2c-0.5-0.1-1-0.3-1.4-0.5
				s-0.8-0.6-1.1-1c-0.3-0.4-0.5-0.9-0.5-1.5h2.2c0.1,0.3,0.2,0.6,0.3,0.8c0.2,0.2,0.3,0.3,0.6,0.5c0.2,0.1,0.5,0.2,0.7,0.2
				c0.3,0,0.5,0,0.8,0c0.9,0,1.6-0.2,2-0.7c0.4-0.4,0.6-1.1,0.6-1.9V33l0,0c-0.3,0.6-0.7,1-1.3,1.3c-0.5,0.3-1.1,0.5-1.8,0.5
				c-0.8,0-1.5-0.1-2.1-0.4c-0.6-0.3-1-0.7-1.4-1.2s-0.6-1.1-0.8-1.7c-0.2-0.6-0.3-1.3-0.3-2.1c0-0.7,0.1-1.3,0.3-1.9
				c0.2-0.6,0.5-1.2,0.9-1.6c0.4-0.5,0.9-0.8,1.4-1.1c0.6-0.3,1.2-0.4,1.9-0.4c0.6,0,1.2,0.1,1.8,0.4c0.5,0.3,0.9,0.7,1.2,1.3l0,0
				v-1.4h2.2v9.5H116.9z M112,33c0.5,0,0.9-0.1,1.3-0.3c0.3-0.2,0.6-0.5,0.8-0.8c0.2-0.3,0.4-0.7,0.5-1.1s0.1-0.9,0.1-1.3
				s-0.1-0.8-0.2-1.3c-0.1-0.4-0.3-0.8-0.5-1.1c-0.2-0.3-0.5-0.6-0.8-0.7c-0.3-0.2-0.8-0.3-1.2-0.3c-0.5,0-0.9,0.1-1.3,0.3
				c-0.3,0.2-0.6,0.5-0.8,0.8c-0.2,0.3-0.4,0.7-0.4,1.1c-0.1,0.4-0.1,0.8-0.1,1.3c0,0.4,0.1,0.8,0.2,1.2c0.1,0.4,0.3,0.8,0.5,1.1
				c0.2,0.3,0.5,0.6,0.8,0.8C111.1,32.9,111.5,33,112,33z"/>
			<path class="st4" d="M119.2,20.8h2.2v14h-2.2V20.8z"/>
			<path class="st4" d="M125.6,30.3c0,0.4,0.1,0.8,0.2,1.1c0.1,0.4,0.3,0.7,0.5,1c0.2,0.3,0.5,0.5,0.8,0.7s0.7,0.2,1.2,0.2
				c0.7,0,1.2-0.1,1.6-0.4c0.4-0.3,0.7-0.7,0.9-1.3h2.1c-0.1,0.5-0.3,1-0.6,1.5c-0.3,0.4-0.6,0.8-1,1.1s-0.9,0.5-1.4,0.7
				c-0.5,0.1-1,0.2-1.6,0.2c-0.8,0-1.5-0.1-2.1-0.4c-0.6-0.3-1.1-0.6-1.6-1.1c-0.4-0.5-0.7-1-1-1.7c-0.2-0.7-0.3-1.4-0.3-2.2
				c0-0.7,0.1-1.4,0.3-2c0.2-0.6,0.6-1.2,1-1.7s0.9-0.9,1.5-1.2c0.6-0.3,1.3-0.4,2-0.4c0.8,0,1.5,0.2,2.1,0.5s1.2,0.8,1.6,1.3
				c0.4,0.5,0.7,1.2,0.9,1.9c0.2,0.7,0.2,1.4,0.1,2.2H125.6z M130.8,28.8c0-0.4-0.1-0.7-0.2-1c-0.1-0.3-0.3-0.6-0.5-0.9
				c-0.2-0.2-0.5-0.4-0.8-0.6c-0.3-0.1-0.6-0.2-1-0.2c-0.4,0-0.7,0.1-1.1,0.2c-0.3,0.1-0.6,0.3-0.8,0.6c-0.2,0.2-0.4,0.5-0.5,0.9
				c-0.1,0.3-0.2,0.7-0.2,1.1h5.1V28.8z"/>
			<path class="st4" d="M140.5,20.8h6.2c1,0,1.8,0.1,2.4,0.4c0.6,0.3,1.1,0.6,1.4,1.1c0.3,0.4,0.6,0.9,0.7,1.4
				c0.1,0.5,0.2,1,0.2,1.4s-0.1,0.9-0.2,1.4c-0.1,0.5-0.4,1-0.7,1.4s-0.8,0.8-1.4,1.1c-0.6,0.3-1.4,0.4-2.4,0.4H143v5.4h-2.4v-14
				H140.5z M142.9,27.4h3.6c0.3,0,0.6,0,0.8-0.1c0.3-0.1,0.6-0.2,0.8-0.4c0.2-0.2,0.4-0.4,0.6-0.7c0.1-0.3,0.2-0.7,0.2-1.1
				c0-0.5-0.1-0.8-0.2-1.1c-0.1-0.3-0.3-0.5-0.5-0.7s-0.5-0.3-0.8-0.4s-0.6-0.1-0.9-0.1h-3.6L142.9,27.4L142.9,27.4z"/>
			<path class="st4" d="M153.3,20.8h2.2v14h-2.2V20.8z"/>
			<path class="st4" d="M166.4,32.5c0,0.3,0,0.5,0.1,0.6s0.2,0.2,0.4,0.2c0.1,0,0.1,0,0.2,0c0.1,0,0.2,0,0.3,0v1.5
				c-0.1,0-0.2,0.1-0.3,0.1s-0.3,0.1-0.4,0.1c-0.1,0-0.3,0-0.4,0.1c-0.1,0-0.2,0-0.3,0c-0.5,0-0.8-0.1-1.1-0.3s-0.5-0.5-0.6-1
				c-0.4,0.4-1,0.7-1.6,0.9s-1.3,0.3-1.9,0.3c-0.5,0-0.9-0.1-1.3-0.2c-0.4-0.1-0.8-0.3-1.1-0.5s-0.6-0.5-0.8-0.9s-0.3-0.8-0.3-1.3
				c0-0.6,0.1-1.1,0.3-1.5s0.5-0.7,0.9-0.9c0.4-0.2,0.8-0.4,1.3-0.5s0.9-0.2,1.4-0.2c0.4-0.1,0.8-0.1,1.2-0.2c0.4,0,0.7-0.1,1-0.2
				s0.5-0.2,0.7-0.4c0.2-0.2,0.2-0.4,0.2-0.7c0-0.3-0.1-0.5-0.2-0.7c-0.1-0.2-0.3-0.3-0.5-0.4s-0.4-0.2-0.7-0.2c-0.2,0-0.5,0-0.7,0
				c-0.6,0-1.1,0.1-1.5,0.4s-0.6,0.7-0.7,1.2h-2.2c0-0.7,0.2-1.2,0.5-1.6s0.6-0.8,1-1c0.4-0.3,0.9-0.4,1.4-0.5s1.1-0.2,1.6-0.2
				s1,0.1,1.5,0.2s0.9,0.3,1.3,0.5c0.4,0.2,0.7,0.5,0.9,0.9s0.4,0.8,0.4,1.4L166.4,32.5L166.4,32.5z M164.2,29.7
				c-0.3,0.2-0.8,0.4-1.3,0.4s-1,0.1-1.5,0.2c-0.2,0-0.5,0.1-0.7,0.2s-0.4,0.2-0.6,0.3c-0.2,0.1-0.3,0.3-0.4,0.5
				c-0.1,0.2-0.1,0.4-0.1,0.7c0,0.2,0.1,0.5,0.2,0.6c0.1,0.2,0.3,0.3,0.5,0.4c0.2,0.1,0.4,0.2,0.7,0.2c0.2,0,0.5,0.1,0.7,0.1
				s0.5,0,0.8-0.1s0.6-0.2,0.8-0.3c0.3-0.2,0.5-0.4,0.6-0.6c0.2-0.2,0.3-0.5,0.3-0.9V29.7z"/>
			<path class="st4" d="M167.7,24.6h2.4l2.6,7.6l0,0l2.6-7.6h2.3l-3.9,10.7c-0.2,0.5-0.4,0.9-0.5,1.3c-0.2,0.4-0.4,0.8-0.6,1.1
				c-0.3,0.3-0.6,0.6-0.9,0.8c-0.4,0.2-0.9,0.3-1.4,0.3s-1,0-1.5-0.1v-1.9c0.2,0,0.4,0.1,0.5,0.1c0.2,0,0.3,0,0.5,0
				c0.3,0,0.5,0,0.6-0.1c0.2-0.1,0.3-0.2,0.4-0.3c0.1-0.1,0.2-0.3,0.3-0.4c0.1-0.2,0.1-0.4,0.2-0.6l0.3-0.8L167.7,24.6z"/>
			<path class="st4" d="M69.4,43.8c0-0.2,0-0.3,0.1-0.5c0-0.2,0.1-0.3,0.2-0.5c0.1-0.1,0.2-0.3,0.3-0.4c0.1-0.1,0.3-0.2,0.4-0.2v0.5
				c-0.1,0-0.2,0.1-0.2,0.2C70.1,43,70,43.1,70,43.2c0,0.1-0.1,0.2-0.1,0.3s0,0.2,0,0.3h0.5V45h-1V43.8z"/>
			<path class="st4" d="M75.1,42.3c1.2,0,2.2,0.4,2.8,1c0.6,0.7,0.9,1.7,0.9,3s-0.3,2.3-0.9,3s-1.6,1-2.8,1h-2.8v-8.1h2.8V42.3z
				 M74.7,49.7c0.6,0,1.1-0.1,1.5-0.2c0.4-0.1,0.8-0.3,1-0.6c0.3-0.3,0.5-0.6,0.6-1.1c0.1-0.4,0.2-0.9,0.2-1.6
				c0-0.6-0.1-1.1-0.2-1.6c-0.1-0.4-0.3-0.8-0.6-1.1c-0.3-0.3-0.6-0.5-1-0.6C75.8,43,75.3,43,74.7,43h-1.6v6.8L74.7,49.7L74.7,49.7z
				"/>
			<path class="st4" d="M85.6,42.3V43h-4.8v2.9h4.5v0.7h-4.5v3.2h4.9v0.7h-5.6v-8.1h5.5V42.3z"/>
			<path class="st4" d="M87.6,42.3l4.7,6.8l0,0v-6.8h0.8v8.1h-0.9l-4.7-6.8l0,0v6.8h-0.8v-8.1C86.7,42.3,87.6,42.3,87.6,42.3z"/>
			<path class="st4" d="M101.1,42.3l3.2,8.1h-0.8l-1-2.5h-3.7l-1,2.5H97l3.3-8.1C100.3,42.3,101.1,42.3,101.1,42.3z M102.2,47.2
				l-1.6-4.1L99,47.2H102.2z"/>
			<path class="st4" d="M105.8,42.3v7.4h4.5v0.7H105v-8.1C105,42.3,105.8,42.3,105.8,42.3z"/>
			<path class="st4" d="M111.9,42.3v8.1h-0.8v-8.1C111.1,42.3,111.9,42.3,111.9,42.3z"/>
			<path class="st4" d="M114.5,42.3l4.7,6.8l0,0v-6.8h0.8v8.1h-0.9l-4.7-6.8l0,0v6.8h-0.8v-8.1C113.6,42.3,114.5,42.3,114.5,42.3z"
				/>
		</g>
	</g>
</g>
</svg>
