<?xml version="1.0" encoding="utf-8"?>
<!-- Generator: Adobe Illustrator 17.0.0, SVG Export Plug-In . SVG Version: 6.00 Build 0)  -->
<!DOCTYPE svg PUBLIC "-//W3C//DTD SVG 1.1//EN" "http://www.w3.org/Graphics/SVG/1.1/DTD/svg11.dtd">
<svg version="1.1" id="Capa_1" xmlns="http://www.w3.org/2000/svg" xmlns:xlink="http://www.w3.org/1999/xlink" x="0px" y="0px"
	 width="512px" height="452.5px" viewBox="0 27.5 512 452.5" enable-background="new 0 27.5 512 452.5" xml:space="preserve">
<path d="M488.625,332.249c-43.04-24.746-92.007-38.827-142.726-42.597c10.389,4.649,20.84,9.191,30.679,14.847
	c11.44,6.584,20.612,16.086,27.357,27.109c24.107,6.695,47.289,16.048,68.767,28.39c4.5,2.594,7.297,7.797,7.297,13.594v74.406h-64
	v32h80c8.844,0,16-7.156,16-16v-90.406C512,356.359,503.031,340.516,488.625,332.249z"/>
<path d="M360.625,332.249c-100.718-57.906-236.53-57.906-337.25,0C8.953,340.546,0,356.374,0,373.593V464c0,8.844,7.156,16,16,16
	h351.999c8.844,0,16-7.156,16-16v-90.422C383.999,356.374,375.046,340.546,360.625,332.249L360.625,332.249z M352,448H32.001
	v-74.406c0-5.797,2.797-11,7.312-13.594c91.062-52.343,214.312-52.343,305.374,0c4.516,2.594,7.312,7.797,7.312,13.578V448z"/>
<path d="M312.032,64.752c2.654-0.278,5.283-0.752,7.969-0.752c44.11,0,80,35.891,80,80s-35.891,80-80,80
	c-2.684,0-5.313-0.477-7.967-0.754c-6.789,10.251-15.1,19.26-24.214,27.451c10.42,3.209,21.172,5.303,32.181,5.303
	c61.75,0,112-50.249,112-112s-50.249-112-112-112c-11.011,0-21.764,2.094-32.183,5.303
	C296.933,45.495,305.243,54.501,312.032,64.752L312.032,64.752z"/>
<path d="M192.001,256c61.749,0,112-50.249,112-112s-50.249-112-112-112s-112,50.249-112,112S130.252,256,192.001,256z M192.001,64
	c44.11,0,80,35.891,80,80s-35.891,80-80,80s-80-35.891-80-80S147.893,64,192.001,64L192.001,64z"/>
</svg>
