<?xml version="1.0" encoding="utf-8"?>
<!-- Generator: Adobe Illustrator 17.0.0, SVG Export Plug-In . SVG Version: 6.00 Build 0)  -->
<!DOCTYPE svg PUBLIC "-//W3C//DTD SVG 1.1//EN" "http://www.w3.org/Graphics/SVG/1.1/DTD/svg11.dtd">
<svg version="1.1" id="Layer_1" xmlns="http://www.w3.org/2000/svg" xmlns:xlink="http://www.w3.org/1999/xlink" x="0px" y="0px"
	 width="31.208px" height="23.25px" viewBox="0 0 31.208 23.25" enable-background="new 0 0 31.208 23.25" xml:space="preserve">
<polygon opacity="0.8" fill="#DDE127" points="7.542,5.56 1.464,5.56 1.464,0.774 7.394,1.298 "/>
<polygon opacity="0.8" fill="#F04C26" points="11.407,5.56 6.185,5.351 5.978,0.774 11.407,0.774 "/>
<polygon opacity="0.8" fill="#60BA46" points="16.496,5.543 11.893,5.849 11.826,0.328 16.496,0.485 "/>
<polygon opacity="0.8" fill="#66C9DD" points="21.057,5.696 15.156,5.849 15.156,0.638 21.057,0.638 "/>
<rect x="19.898" y="0.836" opacity="0.8" fill="#C4DA67" width="4.578" height="4.815"/>
<rect x="25.166" y="0.51" opacity="0.8" fill="#E4F5FD" width="5.783" height="5.058"/>
<polygon opacity="0.8" fill="#DDE127" points="8.896,8.623 2.818,8.623 2.818,3.838 8.749,4.361 "/>
<polygon opacity="0.8" fill="#F04C26" points="12.761,8.623 7.539,8.414 7.332,3.838 12.761,3.838 "/>
<polygon opacity="0.8" fill="#60BA46" points="17.85,8.606 13.248,8.912 13.18,3.391 17.85,3.548 "/>
<polygon opacity="0.8" fill="#66C9DD" points="22.411,8.759 16.51,8.912 16.51,3.701 22.411,3.701 "/>
<rect x="21.253" y="3.899" opacity="0.8" fill="#C4DA67" width="4.578" height="4.815"/>
<polygon opacity="0.8" fill="#DDE127" points="6.448,10.939 0.37,10.939 0.37,6.154 6.301,6.678 "/>
<polygon opacity="0.8" fill="#F04C26" points="10.314,10.939 5.091,10.731 4.885,6.154 10.314,6.154 "/>
<polygon opacity="0.8" fill="#60BA46" points="15.403,10.923 10.8,11.228 10.732,5.707 15.403,5.864 "/>
<polygon opacity="0.8" fill="#66C9DD" points="19.963,11.076 14.062,11.228 14.062,6.017 19.963,6.017 "/>
<rect x="18.805" y="6.215" opacity="0.8" fill="#C4DA67" width="4.578" height="4.815"/>
<rect x="24.073" y="5.89" opacity="0.8" fill="#E4F5FD" width="5.783" height="5.058"/>
<polygon opacity="0.8" fill="#DDE127" points="10.03,11.686 3.952,11.686 3.952,6.901 9.882,7.425 "/>
<polygon opacity="0.8" fill="#F04C26" points="13.895,11.686 8.672,11.478 8.466,6.901 13.895,6.901 "/>
<polygon opacity="0.8" fill="#60BA46" points="18.984,11.67 14.381,11.976 14.314,6.454 18.984,6.611 "/>
<polygon opacity="0.8" fill="#66C9DD" points="23.544,11.823 17.644,11.976 17.644,6.764 23.544,6.764 "/>
<rect x="22.386" y="6.962" opacity="0.8" fill="#C4DA67" width="4.578" height="4.815"/>
<polygon opacity="0.8" fill="#DDE127" points="8.492,13.387 2.415,13.387 2.415,8.602 8.345,9.126 "/>
<polygon opacity="0.8" fill="#F04C26" points="12.358,13.387 7.135,13.179 6.929,8.602 12.358,8.602 "/>
<polygon opacity="0.8" fill="#60BA46" points="17.447,13.37 12.844,13.676 12.776,8.155 17.447,8.312 "/>
<polygon opacity="0.8" fill="#66C9DD" points="22.007,13.523 16.106,13.676 16.106,8.465 22.007,8.465 "/>
<rect x="20.849" y="8.663" opacity="0.8" fill="#C4DA67" width="4.578" height="4.815"/>
<polygon opacity="0.8" fill="#DDE127" points="8.492,22.646 2.415,22.646 2.415,17.861 8.345,18.385 "/>
<polygon opacity="0.8" fill="#F04C26" points="12.358,22.646 7.135,22.438 6.929,17.861 12.358,17.861 "/>
<polygon opacity="0.8" fill="#60BA46" points="17.447,22.63 12.844,22.936 12.776,17.414 17.447,17.572 "/>
<polygon opacity="0.8" fill="#66C9DD" points="22.007,22.783 16.106,22.936 16.106,17.725 22.007,17.725 "/>
<rect x="20.849" y="17.923" opacity="0.8" fill="#C4DA67" width="4.578" height="4.815"/>
<polygon opacity="0.8" fill="#DDE127" points="10.496,22.574 4.418,22.574 4.418,17.789 10.349,18.313 "/>
<polygon opacity="0.8" fill="#F04C26" points="14.361,22.574 9.139,22.366 8.932,17.789 14.361,17.789 "/>
<polygon opacity="0.8" fill="#60BA46" points="19.45,22.558 14.847,22.864 14.78,17.342 19.45,17.5 "/>
<polygon opacity="0.8" fill="#66C9DD" points="24.011,22.711 18.11,22.864 18.11,17.653 24.011,17.653 "/>
<rect x="22.853" y="17.851" opacity="0.8" fill="#C4DA67" width="4.578" height="4.815"/>
</svg>
