<svg xmlns="http://www.w3.org/2000/svg" xmlns:xlink="http://www.w3.org/1999/xlink" version="1.1" style="enable-background:new 0 0 60 60;" xml:space="preserve" width="60" height="30"><rect id="backgroundrect" width="100%" height="100%" x="0" y="0" fill="none" stroke="none" class="" style=""/>
















<g class="currentLayer" style=""><title>Layer 1</title><g id="svg_1" class="">
	<path d="M18.00025036931038,11.000250667333603 c-2.206,0 -4,1.794 -4,4 s1.794,4 4,4 s4,-1.794 4,-4 S20.20625036931038,11.000250667333603 18.00025036931038,11.000250667333603 z" id="svg_2"/>
	<path d="M30.00025036931038,11.000250667333603 c-2.206,0 -4,1.794 -4,4 s1.794,4 4,4 s4,-1.794 4,-4 S32.20625036931038,11.000250667333603 30.00025036931038,11.000250667333603 z" id="svg_3"/>
	<path d="M46.00025036931038,15.000250667333603 c0,-2.206 -1.794,-4 -4,-4 s-4,1.794 -4,4 s1.794,4 4,4 S46.00025036931038,17.206250667333606 46.00025036931038,15.000250667333603 z" id="svg_4"/>
	<path d="M2.414250369310379,15.000250667333603 l13.293,-13.293 c0.3910000000000017,-0.3910000000000017 0.3910000000000017,-1.023 0,-1.4140000000000001 s-1.023,-0.3910000000000017 -1.4140000000000001,0 l-14,14 c-0.3910000000000017,0.3910000000000017 -0.3910000000000017,1.023 0,1.4140000000000001 l14,14 C14.488250369310379,29.902250667333604 14.744250369310379,30.00025066733361 15.000250369310379,30.00025066733361 s0.512,-0.09800000000000081 0.7070000000000006,-0.2930000000000003 c0.3910000000000017,-0.3910000000000017 0.3910000000000017,-1.023 0,-1.4140000000000001 L2.414250369310379,15.000250667333603 z" id="svg_5"/>
	<path d="M59.70725036931038,14.293250667333602 l-14,-14 c-0.3910000000000017,-0.3910000000000017 -1.023,-0.3910000000000017 -1.4140000000000001,0 s-0.3910000000000017,1.023 0,1.4140000000000001 L57.58625036931038,15.000250667333603 L44.29325036931038,28.293250667333602 c-0.3910000000000017,0.3910000000000017 -0.3910000000000017,1.023 0,1.4140000000000001 C44.48825036931038,29.902250667333604 44.74425036931038,30.00025066733361 45.00025036931038,30.00025066733361 s0.512,-0.09800000000000081 0.7070000000000006,-0.2930000000000003 l14,-14 C60.09825036931038,15.316250667333602 60.09825036931038,14.684250667333604 59.70725036931038,14.293250667333602 z" id="svg_6"/>
</g><g id="svg_7" class="">
</g><g id="svg_8" class="">
</g><g id="svg_9" class="">
</g><g id="svg_10" class="">
</g><g id="svg_11" class="">
</g><g id="svg_12" class="">
</g><g id="svg_13" class="">
</g><g id="svg_14" class="">
</g><g id="svg_15" class="">
</g><g id="svg_16" class="">
</g><g id="svg_17" class="">
</g><g id="svg_18" class="">
</g><g id="svg_19" class="">
</g><g id="svg_20" class="">
</g><g id="svg_21" class="">
</g></g></svg>