<svg xmlns="http://www.w3.org/2000/svg" xmlns:xlink="http://www.w3.org/1999/xlink" version="1.1" style="enable-background:new 0 0 60 60;" xml:space="preserve" width="60" height="16"><rect id="backgroundrect" width="100%" height="100%" x="0" y="0" fill="none" stroke="none" class="" style=""/>
















<g class="currentLayer" style=""><title>Layer 1</title><g id="svg_1" class="">
	<path d="M8,0 c-4.411,0 -8,3.589 -8,8 s3.589,8 8,8 s8,-3.589 8,-8 S12.411,0 8,0 z" id="svg_2"/>
	<path d="M52,0 c-4.411,0 -8,3.589 -8,8 s3.589,8 8,8 s8,-3.589 8,-8 S56.411,0 52,0 z" id="svg_3"/>
	<path d="M30,0 c-4.411,0 -8,3.589 -8,8 s3.589,8 8,8 s8,-3.589 8,-8 S34.411,0 30,0 z" id="svg_4"/>
</g><g id="svg_5" class="">
</g><g id="svg_6" class="">
</g><g id="svg_7" class="">
</g><g id="svg_8" class="">
</g><g id="svg_9" class="">
</g><g id="svg_10" class="">
</g><g id="svg_11" class="">
</g><g id="svg_12" class="">
</g><g id="svg_13" class="">
</g><g id="svg_14" class="">
</g><g id="svg_15" class="">
</g><g id="svg_16" class="">
</g><g id="svg_17" class="">
</g><g id="svg_18" class="">
</g><g id="svg_19" class="">
</g></g></svg>