<?xml version="1.0" encoding="utf-8"?>
<!-- Generator: Adobe Illustrator 17.0.0, SVG Export Plug-In . SVG Version: 6.00 Build 0)  -->
<!DOCTYPE svg PUBLIC "-//W3C//DTD SVG 1.1//EN" "http://www.w3.org/Graphics/SVG/1.1/DTD/svg11.dtd">
<svg version="1.1" id="Capa_1" xmlns="http://www.w3.org/2000/svg" xmlns:xlink="http://www.w3.org/1999/xlink" x="0px" y="0px"
	 width="9.751px" height="6.001px" viewBox="0.163 0.355 9.751 6.001" enable-background="new 0.163 0.355 9.751 6.001"
	 xml:space="preserve">
<g>
	<rect x="0.163" y="0.358" fill="#C1C1C1" width="2.251" height="2.239"/>
	<rect x="0.922" y="0.355" fill="#7C7C7C" width="0.734" height="2.246"/>
	<rect x="0.166" y="1.11" fill="#7C7C7C" width="2.246" height="0.734"/>
</g>
<g>
	<rect x="3.914" y="0.358" fill="#C1C1C1" width="2.251" height="2.239"/>
	<rect x="4.672" y="0.355" fill="#7C7C7C" width="0.734" height="2.246"/>
	<rect x="3.916" y="1.11" fill="#7C7C7C" width="2.246" height="0.734"/>
</g>
<g>
	<rect x="7.664" y="0.358" fill="#C1C1C1" width="2.251" height="2.239"/>
	<rect x="8.422" y="0.355" fill="#7C7C7C" width="0.734" height="2.246"/>
	<rect x="7.667" y="1.11" fill="#7C7C7C" width="2.246" height="0.734"/>
</g>
<g>
	<rect x="0.163" y="4.113" fill="#C1C1C1" width="2.251" height="2.239"/>
	<rect x="0.922" y="4.11" fill="#7C7C7C" width="0.734" height="2.246"/>
	<rect x="0.166" y="4.865" fill="#7C7C7C" width="2.246" height="0.734"/>
</g>
<g>
	<rect x="3.914" y="4.113" fill="#C1C1C1" width="2.251" height="2.239"/>
	<rect x="4.672" y="4.11" fill="#7C7C7C" width="0.734" height="2.246"/>
	<rect x="3.916" y="4.865" fill="#7C7C7C" width="2.246" height="0.734"/>
</g>
<g>
	<rect x="7.664" y="4.113" fill="#C1C1C1" width="2.251" height="2.239"/>
	<rect x="8.422" y="4.11" fill="#7C7C7C" width="0.734" height="2.246"/>
	<rect x="7.667" y="4.865" fill="#7C7C7C" width="2.246" height="0.734"/>
</g>
</svg>
