<?xml version="1.0" encoding="iso-8859-1"?>
<!-- Generator: Adobe Illustrator 16.0.0, SVG Export Plug-In . SVG Version: 6.00 Build 0)  -->
<!DOCTYPE svg PUBLIC "-//W3C//DTD SVG 1.1//EN" "http://www.w3.org/Graphics/SVG/1.1/DTD/svg11.dtd">
<svg version="1.1" id="Capa_1" xmlns="http://www.w3.org/2000/svg" xmlns:xlink="http://www.w3.org/1999/xlink" x="0px" y="0px"
	 width="93.985px" height="93.985px" viewBox="0 0 93.985 93.985" style="enable-background:new 0 0 93.985 93.985;"
	 xml:space="preserve">
<g>
	<path d="M91.387,0H2.6C1.164,0,0,1.164,0,2.6v88.785c0,1.437,1.164,2.601,2.6,2.601h88.785c1.437,0,2.601-1.164,2.601-2.601V2.599
		C93.985,1.164,92.821,0,91.387,0z M17.548,83.707c-3.523,0-6.379-2.855-6.379-6.379c0-3.525,2.855-6.381,6.379-6.381
		c3.521,0,6.379,2.855,6.379,6.381C23.927,80.852,21.069,83.707,17.548,83.707z M17.548,52.66c-3.523,0-6.379-2.855-6.379-6.381
		c0-3.526,2.855-6.379,6.379-6.379c3.521,0,6.379,2.854,6.379,6.379C23.927,49.805,21.069,52.66,17.548,52.66z M17.548,23.035
		c-3.523,0-6.379-2.855-6.379-6.381c0-3.523,2.855-6.377,6.379-6.377c3.521,0,6.379,2.854,6.379,6.377
		C23.927,20.179,21.069,23.035,17.548,23.035z M46.993,83.707c-3.523,0-6.379-2.855-6.379-6.379c0-3.525,2.855-6.381,6.379-6.381
		c3.524,0,6.381,2.855,6.381,6.381C53.374,80.852,50.516,83.707,46.993,83.707z M46.993,52.66c-3.523,0-6.379-2.855-6.379-6.381
		c0-3.526,2.856-6.379,6.379-6.379c3.522,0,6.381,2.854,6.381,6.379C53.374,49.805,50.516,52.66,46.993,52.66z M46.993,23.035
		c-3.523,0-6.379-2.855-6.379-6.381c0-3.523,2.855-6.377,6.379-6.377c3.524,0,6.381,2.854,6.381,6.377
		C53.374,20.179,50.516,23.035,46.993,23.035z M76.439,83.707c-3.522,0-6.381-2.855-6.381-6.379c0-3.525,2.857-6.381,6.381-6.381
		c3.521,0,6.38,2.855,6.38,6.381C82.819,80.852,79.963,83.707,76.439,83.707z M76.439,52.66c-3.522,0-6.381-2.855-6.381-6.381
		c0-3.526,2.857-6.379,6.381-6.379c3.521,0,6.38,2.854,6.38,6.379C82.819,49.805,79.963,52.66,76.439,52.66z M76.439,23.035
		c-3.522,0-6.381-2.855-6.381-6.381c0-3.523,2.857-6.377,6.381-6.377c3.521,0,6.38,2.854,6.38,6.377
		C82.819,20.179,79.963,23.035,76.439,23.035z"/>
</g>
<g>
</g>
<g>
</g>
<g>
</g>
<g>
</g>
<g>
</g>
<g>
</g>
<g>
</g>
<g>
</g>
<g>
</g>
<g>
</g>
<g>
</g>
<g>
</g>
<g>
</g>
<g>
</g>
<g>
</g>
</svg>
