<?xml version="1.0" encoding="utf-8"?>
<!-- Generator: Adobe Illustrator 17.0.0, SVG Export Plug-In . SVG Version: 6.00 Build 0)  -->
<!DOCTYPE svg PUBLIC "-//W3C//DTD SVG 1.1//EN" "http://www.w3.org/Graphics/SVG/1.1/DTD/svg11.dtd">
<svg version="1.1" id="Layer_1" xmlns="http://www.w3.org/2000/svg" xmlns:xlink="http://www.w3.org/1999/xlink" x="0px" y="0px"
	 width="529.577px" height="461.38px" viewBox="0 31 529.577 461.38" enable-background="new 0 31 529.577 461.38"
	 xml:space="preserve">
<g>
	<path fill="#F2F0F0" d="M130.505,101.063c-44.324,44.494-66.287,102.825-66.111,161.146L2,262.329l80.664,80.355l80.355-80.664
		l-51.441-0.33c-0.106-46.647,17.637-93.328,53.089-128.917C235.555,61.611,344.838,61.987,416,132.875s71.384,186.468,0.495,257.63
		s-180,69.05-251.162-1.838c-5.469-5.448-10.512-11.131-15.128-17.079l-34.209,34.434c4.777,5.82,9.675,11.647,15.128,17.079
		c88.956,88.615,233.422,88.337,322.037-0.619s88.337-233.422-0.619-322.037S219.12,12.107,130.505,101.063z M234.451,355.095
		l87.534-86.564l0.589-105.667l-45.285-0.252l-0.482,86.546l-74.379,73.555L234.451,355.095z"/>
</g>
</svg>
