<?xml version="1.0" encoding="utf-8"?>
<!-- Generator: Adobe Illustrator 17.0.0, SVG Export Plug-In . SVG Version: 6.00 Build 0)  -->
<!DOCTYPE svg PUBLIC "-//W3C//DTD SVG 1.1//EN" "http://www.w3.org/Graphics/SVG/1.1/DTD/svg11.dtd">
<svg version="1.1" id="Layer_1" xmlns="http://www.w3.org/2000/svg" xmlns:xlink="http://www.w3.org/1999/xlink" x="0px" y="0px"
	 width="519px" height="523px" viewBox="46.5 133.5 519 523" enable-background="new 46.5 133.5 519 523" xml:space="preserve">
<g>
	<path fill="#F4F4F4" d="M191.602,201.349c103.651-71.048,245.78-44.523,316.828,59.128s44.523,245.78-59.128,316.828
		s-245.78,44.523-316.828-59.128c-4.342-6.335-8.072-13.006-11.71-19.603l17.623-12.08l37.596-25.77l25.77,37.596l-17.623,12.08
		c55.055,62.04,146.073,79.027,219.8,41.02l-12.08-17.623l37.596-25.77l12.08,17.623c62.04-55.055,79.027-146.073,41.02-219.8
		l-17.623,12.08l-25.77-37.596l17.623-12.08c-55.055-62.04-146.073-79.027-219.8-41.02l12.08,17.623l-37.596,25.77l-12.08-17.623
		c-31.087,27.535-50.877,63.995-58.133,102.878l41.159,7.681L99.731,430.1l-50.217-91.338l47.178,8.805
		C107.381,290.291,139.844,236.826,191.602,201.349z M275.227,283.04l64.425,93.989l5.235,7.637l-1.663,8.911l-17.738,95.048
		l-44.957-8.902l15.891-85.148l-58.788-85.765L275.227,283.04z"/>
</g>
</svg>
