<svg height="512pt" viewBox="-20 0 512 512" width="512pt" xmlns="http://www.w3.org/2000/svg"><path d="m454.746094 133.070312c-14.296875-18.804687-34.691406-30.351562-56.382813-33.90625-15.863281-2.601562-29.703125-12.15625-37.554687-26.179687-24.382813-43.546875-70.957032-72.984375-124.417969-72.984375-53.453125 0-100.03125 29.4375-124.414063 72.980469-7.914062 14.132812-21.917968 23.574219-37.894531 26.242187-19.6875 3.289063-38.421875 13.199219-52.570312 29.5625-30.859375 35.683594-28.210938 90.042969 5.976562 122.554688 17.285157 16.4375 39.347657 24.527344 61.328125 24.523437l295.152344-.007812c18.804688.015625 37.785156-5.894531 53.960938-18.230469 38.800781-29.585938 46.351562-85.710938 16.816406-124.554688zm0 0" fill="#b5e9f1"/><path d="m140.476562 187.554688c-5.628906-114.125 79.894532-186.273438 80.425782-186.722657-46.867188 5.074219-86.933594 32.871094-108.925782 72.148438-7.914062 14.132812-21.917968 23.574219-37.894531 26.242187-19.6875 3.289063-38.421875 13.199219-52.570312 29.5625-30.859375 35.683594-28.210938 90.042969 5.976562 122.554688 17.285157 16.4375 39.34375 24.527344 61.328125 24.523437h38.648438c8.585937-19.929687 14.984375-48.40625 13.011718-88.308593zm0 0" fill="#81d9e7"/><path d="m236.386719 512c-14 0-25.347657-11.347656-25.347657-25.347656v-125.847656h50.695313v125.847656c0 14-11.347656 25.347656-25.347656 25.347656zm0 0" fill="#f4e74d"/><path d="m211.039062 435.195312 12.257813-10.578124c7.542969-6.507813 18.695313-6.574219 26.320313-.160157l12.117187 10.195313v-73.847656h-50.695313zm0 0" fill="#dfca00"/><path d="m290.105469 425.554688-41.523438-43.449219c-6.632812-6.941407-17.71875-6.941407-24.351562 0l-41.523438 43.449219c-9.496093 9.9375-25.253906 10.292968-35.1875.796874-9.9375-9.5-10.296875-25.253906-.796875-35.1875l56.925782-59.566406c8.507812-8.902344 20.445312-14.003906 32.757812-14.003906s24.25 5.101562 32.757812 14.003906l56.925782 59.566406c9.5 9.933594 9.035156 25.582032-.796875 35.1875-13.824219 13.507813-30.296875 4.320313-35.1875-.796874zm0 0" fill="#f9ee80"/><path d="m296.4375 187.554688c0 33.164062-26.882812 60.050781-60.050781 60.050781-33.164063 0-60.050781-26.886719-60.050781-60.050781 0-33.167969 26.886718-60.050782 60.050781-60.050782 33.167969 0 60.050781 26.882813 60.050781 60.050782zm0 0" fill="#73da8c"/><g fill="#454545"><path d="m300.058594 87.214844c-4.265625 0-7.726563-3.460938-7.726563-7.726563v-12.828125c0-4.265625 3.460938-7.726562 7.726563-7.726562 4.269531 0 7.726562 3.460937 7.726562 7.726562v12.828125c0 4.265625-3.457031 7.726563-7.726562 7.726563zm0 0"/><path d="m172.714844 87.214844c-4.265625 0-7.726563-3.460938-7.726563-7.726563v-12.828125c0-4.265625 3.460938-7.726562 7.726563-7.726562 4.269531 0 7.726562 3.460937 7.726562 7.726562v12.828125c0 4.265625-3.457031 7.726563-7.726562 7.726563zm0 0"/><path d="m251.875 82.109375c0-10.898437-6.933594-19.734375-15.488281-19.734375-8.554688 0-15.488281 8.835938-15.488281 19.734375 0 10.894531 6.933593 19.730469 15.488281 19.730469 8.554687 0 15.488281-8.835938 15.488281-19.730469zm0 0"/></g><path d="m231.671875 218.476562c-1.808594 0-3.621094-.632812-5.082031-1.90625l-26.027344-22.734374c-3.214844-2.808594-3.542969-7.6875-.734375-10.902344 2.804687-3.214844 7.6875-3.542969 10.898437-.734375l20.65625 18.039062 30.347657-29.632812c3.054687-2.984375 7.945312-2.921875 10.925781.128906 2.980469 3.054687 2.921875 7.945313-.128906 10.925781l-35.457032 34.617188c-1.496093 1.460937-3.445312 2.199218-5.398437 2.199218zm0 0" fill="#fffcdc"/></svg>