<svg height="512pt" viewBox="-64 0 512 512" width="512pt" xmlns="http://www.w3.org/2000/svg"><path d="m336.335938 0h-224.933594c-3.980469 0-7.792969 1.582031-10.605469 4.394531l-96.402344 96.398438c-2.8125 2.8125-4.394531 6.628906-4.394531 10.605469v353.46875c0 25.988281 21.144531 47.132812 47.132812 47.132812h289.203126c25.914062 0 47.132812-20.953125 47.132812-47.132812v-417.734376c0-25.914062-20.953125-47.132812-47.132812-47.132812zm0 0" fill="#eff6fe"/><path d="m383.464844 47.128906v417.742188c0 26.179687-21.210938 47.128906-47.128906 47.128906h-144.601563v-512h144.601563c26.179687 0 47.128906 21.21875 47.128906 47.128906zm0 0" fill="#d9e4ef"/><path d="m202.339844 245.394531c-5.855469-5.859375-15.355469-5.859375-21.210938 0l-64.269531 64.265625c-5.855469 5.859375-5.855469 15.355469 0 21.214844 5.859375 5.855469 15.355469 5.855469 21.214844 0l38.660156-38.660156v108.386718c0 8.28125 6.714844 15 15 15 8.28125 0 15-6.71875 15-15v-108.386718l38.660156 38.65625c5.859375 5.863281 15.355469 5.859375 21.210938 0 5.859375-5.855469 5.859375-15.351563 0-21.210938zm0 0" fill="#3ab4fb"/><path d="m256 176.734375h-128.53125c-8.285156 0-15 6.714844-15 15 0 8.28125 6.714844 15 15 15h128.53125c8.285156 0 15-6.71875 15-15 0-8.285156-6.714844-15-15-15zm0 0" fill="#ffcc4b"/><path d="m266.605469 330.871094c-5.851563 5.859375-15.351563 5.859375-21.210938 0l-38.660156-38.660156v108.390624c0 8.277344-6.71875 15-15 15v-174.601562c3.839844 0 7.679687 1.460938 10.609375 4.390625l64.261719 64.269531c5.859375 5.859375 5.859375 15.359375 0 21.210938zm0 0" fill="#1d9cfd"/><path d="m271.003906 191.730469c0 8.289062-6.71875 15-15 15h-64.269531v-30h64.269531c8.28125 0 15 6.71875 15 15zm0 0" fill="#ffb826"/><path d="m95.335938 112.46875c9.445312 0 17.132812-7.6875 17.132812-17.132812v-95.335938h-1.070312c-3.976563 0-7.792969 1.582031-10.605469 4.394531l-96.398438 96.398438c-2.8125 2.8125-4.394531 6.628906-4.394531 10.605469v1.070312zm0 0" fill="#d9e4ef"/></svg>